<mxfile host="app.diagrams.net" modified="2020-12-21T16:57:01.366Z" agent="5.0 (X11; Linux x86_64) AppleWebKit/537.36 (KHTML, like Gecko) Chrome/87.0.4280.88 Safari/537.36" etag="Yt_H6va5RDqpmw5Io5oJ" version="13.10.9" type="github">
  <diagram id="C5RBs43oDa-KdzZeNtuy" name="Page-1">
    <mxGraphModel dx="1110" dy="626" grid="1" gridSize="10" guides="1" tooltips="1" connect="1" arrows="1" fold="1" page="1" pageScale="1" pageWidth="827" pageHeight="1169" math="0" shadow="0">
      <root>
        <mxCell id="WIyWlLk6GJQsqaUBKTNV-0" />
        <mxCell id="WIyWlLk6GJQsqaUBKTNV-1" parent="WIyWlLk6GJQsqaUBKTNV-0" />
        <mxCell id="uWwqP-v0zel46H7BqE1X-2" value="&lt;&lt;IBaseDao&gt;&gt;" style="swimlane;fontStyle=1;align=center;verticalAlign=top;childLayout=stackLayout;horizontal=1;startSize=26;horizontalStack=0;resizeParent=1;resizeParentMax=0;resizeLast=0;collapsible=1;marginBottom=0;" vertex="1" parent="WIyWlLk6GJQsqaUBKTNV-1">
          <mxGeometry x="470" y="266" width="210" height="112" as="geometry" />
        </mxCell>
        <mxCell id="uWwqP-v0zel46H7BqE1X-4" value="" style="line;strokeWidth=1;fillColor=none;align=left;verticalAlign=middle;spacingTop=-1;spacingLeft=3;spacingRight=3;rotatable=0;labelPosition=right;points=[];portConstraint=eastwest;" vertex="1" parent="uWwqP-v0zel46H7BqE1X-2">
          <mxGeometry y="26" width="210" height="8" as="geometry" />
        </mxCell>
        <mxCell id="uWwqP-v0zel46H7BqE1X-5" value="+ alterTable: void" style="text;strokeColor=none;fillColor=none;align=left;verticalAlign=top;spacingLeft=4;spacingRight=4;overflow=hidden;rotatable=0;points=[[0,0.5],[1,0.5]];portConstraint=eastwest;" vertex="1" parent="uWwqP-v0zel46H7BqE1X-2">
          <mxGeometry y="34" width="210" height="26" as="geometry" />
        </mxCell>
        <mxCell id="uWwqP-v0zel46H7BqE1X-7" value="+ countBySQL: int" style="text;strokeColor=none;fillColor=none;align=left;verticalAlign=top;spacingLeft=4;spacingRight=4;overflow=hidden;rotatable=0;points=[[0,0.5],[1,0.5]];portConstraint=eastwest;" vertex="1" parent="uWwqP-v0zel46H7BqE1X-2">
          <mxGeometry y="60" width="210" height="26" as="geometry" />
        </mxCell>
        <mxCell id="uWwqP-v0zel46H7BqE1X-8" value="+ 其他通用方法" style="text;strokeColor=none;fillColor=none;align=left;verticalAlign=top;spacingLeft=4;spacingRight=4;overflow=hidden;rotatable=0;points=[[0,0.5],[1,0.5]];portConstraint=eastwest;" vertex="1" parent="uWwqP-v0zel46H7BqE1X-2">
          <mxGeometry y="86" width="210" height="26" as="geometry" />
        </mxCell>
        <mxCell id="uWwqP-v0zel46H7BqE1X-10" value="" style="line;strokeWidth=1;fillColor=none;align=left;verticalAlign=middle;spacingTop=-1;spacingLeft=3;spacingRight=3;rotatable=0;labelPosition=right;points=[];portConstraint=eastwest;" vertex="1" parent="WIyWlLk6GJQsqaUBKTNV-1">
          <mxGeometry x="680" y="312" width="60" height="8" as="geometry" />
        </mxCell>
        <mxCell id="uWwqP-v0zel46H7BqE1X-12" value="IbaseMapper.xml" style="shape=note;whiteSpace=wrap;html=1;backgroundOutline=1;darkOpacity=0.05;" vertex="1" parent="WIyWlLk6GJQsqaUBKTNV-1">
          <mxGeometry x="740" y="266" width="80" height="100" as="geometry" />
        </mxCell>
        <mxCell id="uWwqP-v0zel46H7BqE1X-13" value="&lt;&lt;IBaseBiz&lt;E&gt;&gt;&gt;" style="swimlane;fontStyle=1;align=center;verticalAlign=top;childLayout=stackLayout;horizontal=1;startSize=26;horizontalStack=0;resizeParent=1;resizeParentMax=0;resizeLast=0;collapsible=1;marginBottom=0;" vertex="1" parent="WIyWlLk6GJQsqaUBKTNV-1">
          <mxGeometry x="40" y="270" width="210" height="112" as="geometry" />
        </mxCell>
        <mxCell id="uWwqP-v0zel46H7BqE1X-14" value="" style="line;strokeWidth=1;fillColor=none;align=left;verticalAlign=middle;spacingTop=-1;spacingLeft=3;spacingRight=3;rotatable=0;labelPosition=right;points=[];portConstraint=eastwest;" vertex="1" parent="uWwqP-v0zel46H7BqE1X-13">
          <mxGeometry y="26" width="210" height="8" as="geometry" />
        </mxCell>
        <mxCell id="uWwqP-v0zel46H7BqE1X-15" value="+ alterTable: void" style="text;strokeColor=none;fillColor=none;align=left;verticalAlign=top;spacingLeft=4;spacingRight=4;overflow=hidden;rotatable=0;points=[[0,0.5],[1,0.5]];portConstraint=eastwest;" vertex="1" parent="uWwqP-v0zel46H7BqE1X-13">
          <mxGeometry y="34" width="210" height="26" as="geometry" />
        </mxCell>
        <mxCell id="uWwqP-v0zel46H7BqE1X-16" value="+ countBySQL: int" style="text;strokeColor=none;fillColor=none;align=left;verticalAlign=top;spacingLeft=4;spacingRight=4;overflow=hidden;rotatable=0;points=[[0,0.5],[1,0.5]];portConstraint=eastwest;" vertex="1" parent="uWwqP-v0zel46H7BqE1X-13">
          <mxGeometry y="60" width="210" height="26" as="geometry" />
        </mxCell>
        <mxCell id="uWwqP-v0zel46H7BqE1X-17" value="+ 其他通用方法" style="text;strokeColor=none;fillColor=none;align=left;verticalAlign=top;spacingLeft=4;spacingRight=4;overflow=hidden;rotatable=0;points=[[0,0.5],[1,0.5]];portConstraint=eastwest;" vertex="1" parent="uWwqP-v0zel46H7BqE1X-13">
          <mxGeometry y="86" width="210" height="26" as="geometry" />
        </mxCell>
        <mxCell id="uWwqP-v0zel46H7BqE1X-18" value="BaseBizImpl" style="swimlane;fontStyle=1;align=center;verticalAlign=top;childLayout=stackLayout;horizontal=1;startSize=26;horizontalStack=0;resizeParent=1;resizeParentMax=0;resizeLast=0;collapsible=1;marginBottom=0;fillColor=none;" vertex="1" parent="WIyWlLk6GJQsqaUBKTNV-1">
          <mxGeometry x="160" y="500" width="265" height="138" as="geometry" />
        </mxCell>
        <mxCell id="uWwqP-v0zel46H7BqE1X-20" value="" style="line;strokeWidth=1;fillColor=none;align=left;verticalAlign=middle;spacingTop=-1;spacingLeft=3;spacingRight=3;rotatable=0;labelPosition=right;points=[];portConstraint=eastwest;" vertex="1" parent="uWwqP-v0zel46H7BqE1X-18">
          <mxGeometry y="26" width="265" height="8" as="geometry" />
        </mxCell>
        <mxCell id="uWwqP-v0zel46H7BqE1X-19" value="+ baseDao: IBaseDao&lt;E&gt;" style="text;strokeColor=none;fillColor=none;align=left;verticalAlign=top;spacingLeft=4;spacingRight=4;overflow=hidden;rotatable=0;points=[[0,0.5],[1,0.5]];portConstraint=eastwest;" vertex="1" parent="uWwqP-v0zel46H7BqE1X-18">
          <mxGeometry y="34" width="265" height="26" as="geometry" />
        </mxCell>
        <mxCell id="uWwqP-v0zel46H7BqE1X-21" value="+ protected abstract IBaseDao&lt;E&gt; getDao();" style="text;strokeColor=none;fillColor=#FF3B0A;align=left;verticalAlign=top;spacingLeft=4;spacingRight=4;overflow=hidden;rotatable=0;points=[[0,0.5],[1,0.5]];portConstraint=eastwest;" vertex="1" parent="uWwqP-v0zel46H7BqE1X-18">
          <mxGeometry y="60" width="265" height="26" as="geometry" />
        </mxCell>
        <mxCell id="uWwqP-v0zel46H7BqE1X-23" value="上一行是这个核心方法" style="text;strokeColor=none;fillColor=none;align=left;verticalAlign=top;spacingLeft=4;spacingRight=4;overflow=hidden;rotatable=0;points=[[0,0.5],[1,0.5]];portConstraint=eastwest;" vertex="1" parent="uWwqP-v0zel46H7BqE1X-18">
          <mxGeometry y="86" width="265" height="26" as="geometry" />
        </mxCell>
        <mxCell id="uWwqP-v0zel46H7BqE1X-24" value="+ 其他接口中对方法" style="text;strokeColor=none;fillColor=none;align=left;verticalAlign=top;spacingLeft=4;spacingRight=4;overflow=hidden;rotatable=0;points=[[0,0.5],[1,0.5]];portConstraint=eastwest;" vertex="1" parent="uWwqP-v0zel46H7BqE1X-18">
          <mxGeometry y="112" width="265" height="26" as="geometry" />
        </mxCell>
        <mxCell id="uWwqP-v0zel46H7BqE1X-22" value="" style="endArrow=block;dashed=1;endFill=0;endSize=12;html=1;exitX=0;exitY=0;exitDx=0;exitDy=0;" edge="1" parent="WIyWlLk6GJQsqaUBKTNV-1" source="uWwqP-v0zel46H7BqE1X-18">
          <mxGeometry width="160" relative="1" as="geometry">
            <mxPoint x="140" y="400" as="sourcePoint" />
            <mxPoint x="162" y="385" as="targetPoint" />
          </mxGeometry>
        </mxCell>
        <mxCell id="uWwqP-v0zel46H7BqE1X-27" value="实现" style="text;html=1;strokeColor=none;fillColor=none;align=center;verticalAlign=middle;whiteSpace=wrap;rounded=0;" vertex="1" parent="WIyWlLk6GJQsqaUBKTNV-1">
          <mxGeometry x="170" y="440" width="40" height="20" as="geometry" />
        </mxCell>
        <mxCell id="uWwqP-v0zel46H7BqE1X-28" value="&lt;&lt;其它Dao&gt;&gt;" style="swimlane;fontStyle=1;align=center;verticalAlign=top;childLayout=stackLayout;horizontal=1;startSize=26;horizontalStack=0;resizeParent=1;resizeParentMax=0;resizeLast=0;collapsible=1;marginBottom=0;" vertex="1" parent="WIyWlLk6GJQsqaUBKTNV-1">
          <mxGeometry x="470" y="500" width="210" height="60" as="geometry" />
        </mxCell>
        <mxCell id="uWwqP-v0zel46H7BqE1X-29" value="" style="line;strokeWidth=1;fillColor=none;align=left;verticalAlign=middle;spacingTop=-1;spacingLeft=3;spacingRight=3;rotatable=0;labelPosition=right;points=[];portConstraint=eastwest;" vertex="1" parent="uWwqP-v0zel46H7BqE1X-28">
          <mxGeometry y="26" width="210" height="8" as="geometry" />
        </mxCell>
        <mxCell id="uWwqP-v0zel46H7BqE1X-30" value="+ 除IBaseDao中的其它方法" style="text;strokeColor=none;fillColor=none;align=left;verticalAlign=top;spacingLeft=4;spacingRight=4;overflow=hidden;rotatable=0;points=[[0,0.5],[1,0.5]];portConstraint=eastwest;" vertex="1" parent="uWwqP-v0zel46H7BqE1X-28">
          <mxGeometry y="34" width="210" height="26" as="geometry" />
        </mxCell>
        <mxCell id="uWwqP-v0zel46H7BqE1X-33" value="" style="line;strokeWidth=1;fillColor=none;align=left;verticalAlign=middle;spacingTop=-1;spacingLeft=3;spacingRight=3;rotatable=0;labelPosition=right;points=[];portConstraint=eastwest;" vertex="1" parent="WIyWlLk6GJQsqaUBKTNV-1">
          <mxGeometry x="683" y="526" width="67" height="8" as="geometry" />
        </mxCell>
        <mxCell id="uWwqP-v0zel46H7BqE1X-34" value="独有方法的Mapper.xml" style="shape=note;whiteSpace=wrap;html=1;backgroundOutline=1;darkOpacity=0.05;" vertex="1" parent="WIyWlLk6GJQsqaUBKTNV-1">
          <mxGeometry x="747" y="475" width="80" height="100" as="geometry" />
        </mxCell>
        <mxCell id="uWwqP-v0zel46H7BqE1X-36" value="Extends" style="endArrow=block;endSize=16;endFill=0;html=1;" edge="1" parent="WIyWlLk6GJQsqaUBKTNV-1" source="uWwqP-v0zel46H7BqE1X-28" target="uWwqP-v0zel46H7BqE1X-8">
          <mxGeometry width="160" relative="1" as="geometry">
            <mxPoint x="530" y="440" as="sourcePoint" />
            <mxPoint x="690" y="440" as="targetPoint" />
          </mxGeometry>
        </mxCell>
        <mxCell id="uWwqP-v0zel46H7BqE1X-39" value="&lt;&lt;ModelBiz&gt;&gt;" style="swimlane;fontStyle=1;align=center;verticalAlign=top;childLayout=stackLayout;horizontal=1;startSize=26;horizontalStack=0;resizeParent=1;resizeParentMax=0;resizeLast=0;collapsible=1;marginBottom=0;fillColor=none;strokeColor=#FF33FF;" vertex="1" parent="WIyWlLk6GJQsqaUBKTNV-1">
          <mxGeometry x="20" y="720" width="265" height="78" as="geometry" />
        </mxCell>
        <mxCell id="uWwqP-v0zel46H7BqE1X-44" value="+ 除了IBaseBiz接口外的其他方法1定义" style="text;strokeColor=none;fillColor=none;align=left;verticalAlign=top;spacingLeft=4;spacingRight=4;overflow=hidden;rotatable=0;points=[[0,0.5],[1,0.5]];portConstraint=eastwest;" vertex="1" parent="uWwqP-v0zel46H7BqE1X-39">
          <mxGeometry y="26" width="265" height="26" as="geometry" />
        </mxCell>
        <mxCell id="uWwqP-v0zel46H7BqE1X-46" value="+ 除了IBaseBiz接口外的其他方法n定义" style="text;strokeColor=none;fillColor=none;align=left;verticalAlign=top;spacingLeft=4;spacingRight=4;overflow=hidden;rotatable=0;points=[[0,0.5],[1,0.5]];portConstraint=eastwest;" vertex="1" parent="uWwqP-v0zel46H7BqE1X-39">
          <mxGeometry y="52" width="265" height="26" as="geometry" />
        </mxCell>
        <mxCell id="uWwqP-v0zel46H7BqE1X-45" value="Extends" style="endArrow=block;endSize=16;endFill=0;html=1;entryX=0.086;entryY=1.077;entryDx=0;entryDy=0;entryPerimeter=0;exitX=0.144;exitY=0;exitDx=0;exitDy=0;exitPerimeter=0;" edge="1" parent="WIyWlLk6GJQsqaUBKTNV-1" source="uWwqP-v0zel46H7BqE1X-39" target="uWwqP-v0zel46H7BqE1X-17">
          <mxGeometry width="160" relative="1" as="geometry">
            <mxPoint x="20" y="480" as="sourcePoint" />
            <mxPoint x="180" y="480" as="targetPoint" />
          </mxGeometry>
        </mxCell>
        <mxCell id="uWwqP-v0zel46H7BqE1X-47" value="ModelBizImpl" style="swimlane;fontStyle=1;align=center;verticalAlign=top;childLayout=stackLayout;horizontal=1;startSize=26;horizontalStack=0;resizeParent=1;resizeParentMax=0;resizeLast=0;collapsible=1;marginBottom=0;fillColor=none;strokeColor=#FF33FF;" vertex="1" parent="WIyWlLk6GJQsqaUBKTNV-1">
          <mxGeometry x="160" y="900" width="265" height="166" as="geometry" />
        </mxCell>
        <mxCell id="uWwqP-v0zel46H7BqE1X-48" value="" style="line;strokeWidth=1;fillColor=none;align=left;verticalAlign=middle;spacingTop=-1;spacingLeft=3;spacingRight=3;rotatable=0;labelPosition=right;points=[];portConstraint=eastwest;" vertex="1" parent="uWwqP-v0zel46H7BqE1X-47">
          <mxGeometry y="26" width="265" height="8" as="geometry" />
        </mxCell>
        <mxCell id="uWwqP-v0zel46H7BqE1X-50" value="实现父类中定义的&#xa;protected abstract IBaseDao&lt;E&gt; getDao();&#xa;特别注意这个方法需要返回本Biz对应的Dao实例。&#xa;&#xa;比如本实现类中使用的是modelDao那么这个&#xa;getDao方法就要返回注入对modelDao对象." style="text;strokeColor=none;fillColor=#FF3B0A;align=left;verticalAlign=top;spacingLeft=4;spacingRight=4;overflow=hidden;rotatable=0;points=[[0,0.5],[1,0.5]];portConstraint=eastwest;" vertex="1" parent="uWwqP-v0zel46H7BqE1X-47">
          <mxGeometry y="34" width="265" height="106" as="geometry" />
        </mxCell>
        <mxCell id="uWwqP-v0zel46H7BqE1X-56" value="+ 实现&lt;&lt;ModelBiz&gt;&gt;接口中定义的方法" style="text;strokeColor=none;fillColor=none;align=left;verticalAlign=top;spacingLeft=4;spacingRight=4;overflow=hidden;rotatable=0;points=[[0,0.5],[1,0.5]];portConstraint=eastwest;" vertex="1" parent="uWwqP-v0zel46H7BqE1X-47">
          <mxGeometry y="140" width="265" height="26" as="geometry" />
        </mxCell>
        <mxCell id="uWwqP-v0zel46H7BqE1X-53" value="Extends" style="endArrow=block;endSize=16;endFill=0;html=1;entryX=0.8;entryY=1.115;entryDx=0;entryDy=0;entryPerimeter=0;" edge="1" parent="WIyWlLk6GJQsqaUBKTNV-1" target="uWwqP-v0zel46H7BqE1X-24">
          <mxGeometry width="160" relative="1" as="geometry">
            <mxPoint x="372" y="902" as="sourcePoint" />
            <mxPoint x="530" y="770" as="targetPoint" />
          </mxGeometry>
        </mxCell>
        <mxCell id="uWwqP-v0zel46H7BqE1X-54" value="" style="endArrow=block;dashed=1;endFill=0;endSize=12;html=1;entryX=0.675;entryY=1.231;entryDx=0;entryDy=0;entryPerimeter=0;" edge="1" parent="WIyWlLk6GJQsqaUBKTNV-1" target="uWwqP-v0zel46H7BqE1X-46">
          <mxGeometry width="160" relative="1" as="geometry">
            <mxPoint x="199" y="900" as="sourcePoint" />
            <mxPoint x="320" y="850" as="targetPoint" />
          </mxGeometry>
        </mxCell>
        <mxCell id="uWwqP-v0zel46H7BqE1X-55" value="实现" style="text;html=1;strokeColor=none;fillColor=none;align=center;verticalAlign=middle;whiteSpace=wrap;rounded=0;" vertex="1" parent="WIyWlLk6GJQsqaUBKTNV-1">
          <mxGeometry x="200" y="850" width="40" height="20" as="geometry" />
        </mxCell>
        <mxCell id="uWwqP-v0zel46H7BqE1X-58" value="" style="endArrow=block;startArrow=block;endFill=1;startFill=1;html=1;entryX=0.471;entryY=1.154;entryDx=0;entryDy=0;entryPerimeter=0;" edge="1" parent="WIyWlLk6GJQsqaUBKTNV-1" target="uWwqP-v0zel46H7BqE1X-30">
          <mxGeometry width="160" relative="1" as="geometry">
            <mxPoint x="430" y="970" as="sourcePoint" />
            <mxPoint x="420" y="720" as="targetPoint" />
            <Array as="points">
              <mxPoint x="575" y="970" />
            </Array>
          </mxGeometry>
        </mxCell>
        <mxCell id="uWwqP-v0zel46H7BqE1X-59" value="通过重写getDao方法把对应的dao对象读取到Biz类中" style="text;html=1;strokeColor=none;fillColor=none;align=center;verticalAlign=middle;whiteSpace=wrap;rounded=0;" vertex="1" parent="WIyWlLk6GJQsqaUBKTNV-1">
          <mxGeometry x="500" y="780" width="150" height="30" as="geometry" />
        </mxCell>
      </root>
    </mxGraphModel>
  </diagram>
</mxfile>
